<svg width="286" height="48" viewBox="0 0 286 48" fill="none" xmlns="http://www.w3.org/2000/svg">
    <mask id="mask0" mask-type="alpha" maskUnits="userSpaceOnUse" x="0" y="0" width="286" height="48">
        <rect width="286" height="48" fill="#C4C4C4"/>
    </mask>
    <g mask="url(#mask0)">
        <path fill-rule="evenodd" clip-rule="evenodd"
              d="M12.4417 27.3407H7.53457V42H0V6H12.4916C18.6379 6 23 8.04403 23 16.8197C23 24.0995 19.7781 27.3407 12.4417 27.3407ZM9.56672 11.5345H7.53457V21.8058H10.5583C13.8296 21.8058 15.416 20.1607 15.416 16.6702C15.416 11.9833 13.0366 11.5345 9.56672 11.5345Z"
              fill="#111111"/>
        <path fill-rule="evenodd" clip-rule="evenodd"
              d="M263.118 6L273 42H264.983L262.966 34.0221H252.58L250.513 42H243L253.084 6H263.118ZM261.404 28.5869L257.622 12.9307L254.042 28.5869H261.404Z"
              fill="#111111"/>
        <path fill-rule="evenodd" clip-rule="evenodd"
              d="M224.661 21.1575L233.633 6H242L231.819 22.1548L242 42H233.432L224.661 23.8003V42H217V6H224.661V21.1575Z"
              fill="#111111"/>
        <path fill-rule="evenodd" clip-rule="evenodd"
              d="M203.805 19.1135H203.657L195.329 42H187V6H194.195V28.8861H194.343L202.672 6H211V42H203.805V19.1135Z"
              fill="#111111"/>
        <path fill-rule="evenodd" clip-rule="evenodd"
              d="M175.25 42L173.301 34.0221L171.79 28.5869L168.134 12.9307L163.26 34.0221L161.262 42H154L163.748 6H173.447L183 42H175.25Z"
              fill="#111111"/>
        <path fill-rule="evenodd" clip-rule="evenodd"
              d="M142.223 20.4095C148.408 20.4095 154 21.9049 154 31.3784C154 42.3474 146.132 41.9988 142.965 41.9988H130V6H152.072V11.5343H137.472V20.4095H142.223ZM137.472 36.3643H141.381C142.965 36.3643 146.528 36.4142 146.528 31.2787C146.528 27.9882 145.34 25.9937 141.579 25.9937H137.472V36.3643Z"
              fill="#111111"/>
        <path fill-rule="evenodd" clip-rule="evenodd"
              d="M114.204 23.0524L120.567 6H128L116.979 31.6435L117.227 42H110.155L110.334 32.0275L100 6H108.145L114.204 23.0524Z"
              fill="#111111"/>
        <path fill-rule="evenodd" clip-rule="evenodd" d="M90.6886 11.5345H82.3117V42H75V6H98V42H90.6886V11.5345Z"
              fill="#111111"/>
        <path fill-rule="evenodd" clip-rule="evenodd"
              d="M60.9187 42.5C49.4928 42.5 49 34.0117 49 24.1248C49 13.9387 49.345 5.5 61.2633 5.5C68.1583 5.5 71.6059 9.04504 71.6059 16.1855V17.4338H64.3171V16.6349C64.3171 12.8901 63.135 10.9925 60.771 10.9925C56.6338 10.9925 56.4369 16.4851 56.4369 24.6741C56.4369 31.8645 56.6338 37.0574 60.8201 37.0574C64.4649 37.0574 64.6617 32.6635 64.6617 29.9669H72V31.0156C72 38.7053 68.3556 42.5 60.9187 42.5Z"
              fill="#111111"/>
        <path fill-rule="evenodd" clip-rule="evenodd"
              d="M27 6H46.6022V11.5345H34.5126V20.41H45.6567V25.9445H34.5126V36.3653H47V42H27V6Z" fill="#111111"/>
        <circle cx="279" cy="11" r="6" fill="#46C3D2"/>
    </g>
</svg>
